{
    "asset" : {
        "generator" : "Khronos glTF Blender I/O v1.4.40",
        "version" : "2.0"
    },
    "scene" : 0,
    "scenes" : [
        {
            "name" : "Scene",
            "nodes" : [
                0,
                1,
                2,
                3,
                4,
                5
            ]
        }
    ],
    "nodes" : [
        {
            "name" : "Light",
            "rotation" : [
                0.16907575726509094,
                0.7558803558349609,
                -0.27217137813568115,
                0.570947527885437
            ],
            "translation" : [
                4.076245307922363,
                5.903861999511719,
                -1.0054539442062378
            ]
        },
        {
            "name" : "Camera",
            "rotation" : [
                0.483536034822464,
                0.33687159419059753,
                -0.20870360732078552,
                0.7804827094078064
            ],
            "translation" : [
                7.358891487121582,
                4.958309173583984,
                6.925790786743164
            ]
        },
        {
            "mesh" : 0,
            "name" : "Vase",
            "translation" : [
                0,
                1,
                0
            ]
        },
        {
            "mesh" : 1,
            "name" : "Soil",
            "scale" : [
                0.8857376575469971,
                0.8857376575469971,
                0.8857376575469971
            ],
            "translation" : [
                0,
                1.627264380455017,
                0
            ]
        },
        {
            "mesh" : 2,
            "name" : "stem",
            "scale" : [
                0.311159610748291,
                2.531792402267456,
                0.311159610748291
            ],
            "translation" : [
                0,
                4.764525413513184,
                0
            ]
        },
        {
            "mesh" : 3,
            "name" : "Icosphere",
            "translation" : [
                1.0771270990371704,
                7.364075183868408,
                -0.1731145679950714
            ]
        }
    ],
    "materials" : [
        {
            "doubleSided" : true,
            "name" : "Material.001",
            "pbrMetallicRoughness" : {
                "baseColorFactor" : [
                    0.15232497453689575,
                    0.15232497453689575,
                    0.15232497453689575,
                    1
                ],
                "metallicFactor" : 0,
                "roughnessFactor" : 0.5
            }
        },
        {
            "doubleSided" : true,
            "name" : "Material.002",
            "pbrMetallicRoughness" : {
                "baseColorFactor" : [
                    0.25294312834739685,
                    0.05654682219028473,
                    0.01267850212752819,
                    1
                ],
                "metallicFactor" : 0,
                "roughnessFactor" : 0.5
            }
        },
        {
            "doubleSided" : true,
            "name" : "Material.003",
            "pbrMetallicRoughness" : {
                "baseColorFactor" : [
                    0.0699780210852623,
                    0.01650337502360344,
                    0.0044454047456383705,
                    1
                ],
                "metallicFactor" : 0,
                "roughnessFactor" : 0.5
            }
        },
        {
            "doubleSided" : true,
            "name" : "Material.004",
            "pbrMetallicRoughness" : {
                "baseColorFactor" : [
                    0.07032730430364609,
                    0.8000000715255737,
                    0.06568038463592529,
                    1
                ],
                "metallicFactor" : 0,
                "roughnessFactor" : 0.5
            }
        }
    ],
    "meshes" : [
        {
            "name" : "Cylinder",
            "primitives" : [
                {
                    "attributes" : {
                        "POSITION" : 0,
                        "NORMAL" : 1,
                        "TEXCOORD_0" : 2
                    },
                    "indices" : 3,
                    "material" : 0
                }
            ]
        },
        {
            "name" : "Cylinder.001",
            "primitives" : [
                {
                    "attributes" : {
                        "POSITION" : 4,
                        "NORMAL" : 5,
                        "TEXCOORD_0" : 6
                    },
                    "indices" : 7,
                    "material" : 1
                }
            ]
        },
        {
            "name" : "Cylinder.002",
            "primitives" : [
                {
                    "attributes" : {
                        "POSITION" : 8,
                        "NORMAL" : 9,
                        "TEXCOORD_0" : 10
                    },
                    "indices" : 7,
                    "material" : 2
                }
            ]
        },
        {
            "name" : "Icosphere",
            "primitives" : [
                {
                    "attributes" : {
                        "POSITION" : 11,
                        "NORMAL" : 12,
                        "TEXCOORD_0" : 13
                    },
                    "indices" : 14,
                    "material" : 3
                }
            ]
        }
    ],
    "accessors" : [
        {
            "bufferView" : 0,
            "componentType" : 5126,
            "count" : 558,
            "max" : [
                1.641806721687317,
                1.7772657871246338,
                1.641806960105896
            ],
            "min" : [
                -1.641806960105896,
                -1,
                -1.6418066024780273
            ],
            "type" : "VEC3"
        },
        {
            "bufferView" : 1,
            "componentType" : 5126,
            "count" : 558,
            "type" : "VEC3"
        },
        {
            "bufferView" : 2,
            "componentType" : 5126,
            "count" : 558,
            "type" : "VEC2"
        },
        {
            "bufferView" : 3,
            "componentType" : 5123,
            "count" : 948,
            "type" : "SCALAR"
        },
        {
            "bufferView" : 4,
            "componentType" : 5126,
            "count" : 192,
            "max" : [
                1,
                1,
                1
            ],
            "min" : [
                -1,
                -1,
                -1
            ],
            "type" : "VEC3"
        },
        {
            "bufferView" : 5,
            "componentType" : 5126,
            "count" : 192,
            "type" : "VEC3"
        },
        {
            "bufferView" : 6,
            "componentType" : 5126,
            "count" : 192,
            "type" : "VEC2"
        },
        {
            "bufferView" : 7,
            "componentType" : 5123,
            "count" : 372,
            "type" : "SCALAR"
        },
        {
            "bufferView" : 8,
            "componentType" : 5126,
            "count" : 192,
            "max" : [
                1,
                1,
                1
            ],
            "min" : [
                -1,
                -1,
                -1
            ],
            "type" : "VEC3"
        },
        {
            "bufferView" : 9,
            "componentType" : 5126,
            "count" : 192,
            "type" : "VEC3"
        },
        {
            "bufferView" : 10,
            "componentType" : 5126,
            "count" : 192,
            "type" : "VEC2"
        },
        {
            "bufferView" : 11,
            "componentType" : 5126,
            "count" : 9600,
            "max" : [
                3.147892951965332,
                4.996328353881836,
                4.773525714874268
            ],
            "min" : [
                -5.601065635681152,
                -2.87454891204834,
                -3.4748380184173584
            ],
            "type" : "VEC3"
        },
        {
            "bufferView" : 12,
            "componentType" : 5126,
            "count" : 9600,
            "type" : "VEC3"
        },
        {
            "bufferView" : 13,
            "componentType" : 5126,
            "count" : 9600,
            "type" : "VEC2"
        },
        {
            "bufferView" : 14,
            "componentType" : 5123,
            "count" : 9600,
            "type" : "SCALAR"
        }
    ],
    "bufferViews" : [
        {
            "buffer" : 0,
            "byteLength" : 6696,
            "byteOffset" : 0
        },
        {
            "buffer" : 0,
            "byteLength" : 6696,
            "byteOffset" : 6696
        },
        {
            "buffer" : 0,
            "byteLength" : 4464,
            "byteOffset" : 13392
        },
        {
            "buffer" : 0,
            "byteLength" : 1896,
            "byteOffset" : 17856
        },
        {
            "buffer" : 0,
            "byteLength" : 2304,
            "byteOffset" : 19752
        },
        {
            "buffer" : 0,
            "byteLength" : 2304,
            "byteOffset" : 22056
        },
        {
            "buffer" : 0,
            "byteLength" : 1536,
            "byteOffset" : 24360
        },
        {
            "buffer" : 0,
            "byteLength" : 744,
            "byteOffset" : 25896
        },
        {
            "buffer" : 0,
            "byteLength" : 2304,
            "byteOffset" : 26640
        },
        {
            "buffer" : 0,
            "byteLength" : 2304,
            "byteOffset" : 28944
        },
        {
            "buffer" : 0,
            "byteLength" : 1536,
            "byteOffset" : 31248
        },
        {
            "buffer" : 0,
            "byteLength" : 115200,
            "byteOffset" : 32784
        },
        {
            "buffer" : 0,
            "byteLength" : 115200,
            "byteOffset" : 147984
        },
        {
            "buffer" : 0,
            "byteLength" : 76800,
            "byteOffset" : 263184
        },
        {
            "buffer" : 0,
            "byteLength" : 19200,
            "byteOffset" : 339984
        }
    ],
    "buffers" : [
        {
            "byteLength" : 359184,
            "uri" : "data:application/octet-stream;base64,"
        }
    ]
}
